<svg version="1.1" id="Layer_1" xmlns="http://www.w3.org/2000/svg" xmlns:xlink="http://www.w3.org/1999/xlink" x="0px" y="0px"
	 width="100%" viewBox="0 0 460 275" enable-background="new 0 0 460 275" xml:space="preserve">
<path fill="#FFFFFF" opacity="1.000000" stroke="none" 
	d="
M329.000000,276.000000 
	C219.333328,276.000000 110.166664,276.000000 1.000000,276.000000 
	C1.000000,184.333328 1.000000,92.666664 1.000000,1.000000 
	C154.333328,1.000000 307.666656,1.000000 461.000000,1.000000 
	C461.000000,92.666664 461.000000,184.333328 461.000000,276.000000 
	C417.166656,276.000000 373.333344,276.000000 329.000000,276.000000 
M265.808807,215.683350 
	C265.903259,202.793030 265.997742,189.902725 266.790619,176.675827 
	C266.438965,170.252411 272.000336,165.411026 276.590790,164.181702 
	C281.638458,162.829910 287.477905,165.235855 289.940979,170.733353 
	C291.736816,174.741592 292.712311,179.397034 292.867920,183.805786 
	C293.265594,195.073486 293.000519,206.364578 293.000519,217.781433 
	C299.161865,217.781433 304.898102,217.781433 310.999512,217.781433 
	C310.999512,215.759003 310.959961,213.963928 311.005890,212.171036 
	C311.328003,199.590851 311.529907,187.005341 312.057373,174.433563 
	C312.341187,167.668320 321.385986,162.095627 328.129211,164.642044 
	C335.290649,167.346390 337.752930,170.201172 337.936096,179.416367 
	C338.189819,192.180145 337.999847,204.952728 337.999847,217.716736 
	C344.287018,217.716736 350.019501,217.716736 355.999634,217.716736 
	C355.999634,200.779419 356.317078,184.130402 355.821960,167.505615 
	C355.655792,161.927032 352.863098,156.896545 347.893341,153.264206 
	C341.092926,148.293869 333.540009,147.742447 325.558167,147.920700 
	C319.232697,148.061981 313.687683,149.666855 309.274872,154.282150 
	C307.426361,156.215485 305.834412,156.742645 303.953583,154.472961 
	C296.323029,145.264862 274.810669,144.833801 267.037750,151.957642 
	C265.511108,150.594879 264.148987,148.325546 262.586365,148.177902 
	C257.521851,147.699387 252.383804,147.999146 247.267639,147.999146 
	C247.267639,171.561935 247.267639,194.628937 247.267639,218.011841 
	C252.665756,218.011841 257.804016,218.086044 262.934967,217.926346 
	C263.648102,217.904144 264.325348,216.728775 265.808807,215.683350 
M371.739410,71.702232 
	C371.739410,71.702232 371.366455,71.385704 371.830048,70.749901 
	C372.073639,70.139137 372.411377,69.548439 372.546448,68.914543 
	C374.109772,61.577869 372.780029,53.998108 362.441254,54.971294 
	C360.295074,55.173306 358.113556,55.013519 355.948456,54.998405 
	C343.744141,54.913216 335.215118,61.700554 329.563080,71.311935 
	C322.537964,83.258331 323.328644,96.354767 329.337250,108.537666 
	C334.484100,118.973305 343.040039,126.997208 351.578583,134.759140 
	C354.028992,136.986679 357.117950,139.014664 360.260223,139.886276 
	C370.691895,142.779785 374.295227,140.878708 379.418030,131.209229 
	C383.800568,122.937065 388.226624,114.684616 392.818085,106.527382 
	C397.676575,97.895676 402.666168,89.333031 407.868835,80.907112 
	C408.390259,80.062645 411.560150,79.630371 412.174622,80.273666 
	C415.186707,83.427101 417.632751,87.012054 416.092072,91.859367 
	C413.029449,101.494980 407.623108,109.551094 399.869049,116.006348 
	C395.975800,119.247452 391.831543,122.194710 388.026642,125.532295 
	C383.485535,129.515671 383.847748,135.018295 388.316254,138.900757 
	C392.356354,142.410980 396.853027,141.906601 400.605042,139.553696 
	C405.347443,136.579727 409.318665,132.393433 413.708038,128.835571 
	C423.128296,121.199821 430.195923,111.874992 433.398560,100.101128 
	C438.022614,83.101456 432.873413,70.836533 421.076355,60.902618 
	C409.923676,51.511318 393.014038,53.335491 382.419037,63.051891 
	C379.047577,66.143753 375.521088,69.066620 371.739410,71.702232 
M123.121124,150.365906 
	C118.576317,153.035370 113.696136,154.781845 110.451614,159.749954 
	C104.149513,169.399918 102.640366,179.649765 105.134613,190.461884 
	C106.703957,197.264709 109.325317,204.346191 115.856308,207.808151 
	C127.037643,213.735123 138.848694,215.396652 150.752396,209.179077 
	C152.819122,222.350464 141.673111,228.072845 132.325119,225.275635 
	C126.507248,223.534729 123.398369,220.008530 120.741821,215.285782 
	C119.626053,213.302185 118.964058,211.426773 116.520424,214.654404 
	C114.187767,217.735443 110.795685,220.019257 107.845222,222.626236 
	C105.257317,224.912888 105.652740,227.023010 107.261742,229.969894 
	C111.509674,237.749969 119.505676,239.671356 126.657227,241.719269 
	C135.573257,244.272430 144.800980,244.039886 154.016632,240.188110 
	C163.545593,236.205399 169.202255,228.095490 169.056107,217.641678 
	C168.837402,201.997681 168.999252,186.348373 168.999237,170.701324 
	C168.999222,163.592728 168.999237,156.484146 168.999237,148.832245 
	C162.394287,149.924789 155.801895,147.172363 148.694809,151.392548 
	C141.652512,148.185364 132.909515,146.917648 123.121124,150.365906 
M74.393303,216.026642 
	C76.560135,215.246246 78.726959,214.465866 80.909004,213.679993 
	C80.994438,215.087982 81.079887,216.496231 81.151787,217.681061 
	C87.716560,217.681061 93.793724,217.681061 99.685036,217.681061 
	C99.685036,194.270996 99.685036,171.201706 99.685036,148.123688 
	C93.391014,148.123688 87.417572,148.123688 81.253365,148.123688 
	C81.086296,149.352570 80.932541,150.483551 80.774612,151.645248 
	C78.668030,151.011459 76.954918,150.520813 75.257286,149.981415 
	C59.675121,145.030594 42.793800,148.050491 33.042107,164.225861 
	C25.744753,176.330154 25.681740,192.451157 35.866680,204.621735 
	C46.023960,216.759277 58.341614,220.977127 74.393303,216.026642 
M227.547089,180.984161 
	C228.372955,178.385254 229.073914,175.738464 230.048615,173.196625 
	C232.740280,166.177322 235.441162,159.157608 238.358109,152.230576 
	C239.554214,149.390091 238.820160,148.098068 235.914062,148.026398 
	C231.754868,147.923843 227.564453,148.288239 223.438156,147.905594 
	C220.190216,147.604416 218.970337,149.339066 218.060928,151.769012 
	C213.965225,162.712585 209.913803,173.672699 205.577667,185.350662 
	C200.589233,172.397659 195.940231,160.326035 191.287827,148.245544 
	C185.338364,148.245544 179.238235,148.245544 172.702682,148.245544 
	C173.096985,149.816895 173.295227,151.091263 173.733398,152.276978 
	C177.463394,162.370590 181.372528,172.400177 184.957916,182.544418 
	C188.273056,191.924088 191.310577,201.403915 194.314423,210.889008 
	C194.688797,212.071136 194.353058,213.639984 193.923843,214.883881 
	C192.718063,218.378464 191.196335,221.763535 189.974197,225.253098 
	C188.095261,230.618103 186.362274,236.034210 184.378036,241.997650 
	C190.830414,241.997650 196.311249,242.149353 201.770370,241.872803 
	C202.895126,241.815826 204.433350,240.375900 204.939407,239.208572 
	C208.080673,231.962524 211.051178,224.639526 213.930267,217.284088 
	C215.156052,214.152435 215.896332,210.832809 217.079056,207.681839 
	C220.347626,198.973999 223.733078,190.310028 227.547089,180.984161 
M373.959320,19.013361 
	C363.380096,23.230450 363.020325,34.910870 367.005646,42.741653 
	C367.851074,44.402805 369.369934,46.142685 371.014862,46.906113 
	C380.650970,51.378342 396.093964,48.374939 395.373260,33.212708 
	C394.927795,23.841503 384.641235,14.763084 373.959320,19.013361 
M278.017761,252.113678 
	C281.030304,254.771317 283.347687,258.444733 288.258179,258.052765 
	C292.719940,257.696625 297.215424,257.762604 301.824768,257.639038 
	C301.824768,249.293381 301.824768,240.853256 301.824768,232.002609 
	C297.076630,232.002609 292.448151,231.663773 287.903748,232.135330 
	C285.359131,232.399384 282.606873,233.546234 280.551697,235.095734 
	C274.721191,239.491653 276.933136,245.575150 278.017761,252.113678 
M332.602448,253.942490 
	C338.962799,260.439270 347.560760,259.765869 352.746124,252.380951 
	C351.034302,250.149353 349.741394,249.396088 346.740417,251.466797 
	C341.887573,254.815308 337.801117,252.966873 335.084198,246.874725 
	C341.167572,246.874725 347.032288,246.874725 352.996002,246.874725 
	C352.996002,245.692719 352.941986,245.028214 353.004730,244.374924 
	C353.437469,239.870010 352.921173,235.225204 348.464783,233.348938 
	C343.715790,231.349487 338.606628,230.664093 333.750916,234.529617 
	C328.428650,238.766602 327.481964,245.829880 332.602448,253.942490 
M254.933640,239.464828 
	C257.147369,236.974304 259.331635,235.272064 263.141510,236.881088 
	C265.415527,237.841507 269.072632,241.407959 270.599091,237.352341 
	C272.235748,233.003937 266.903809,233.225479 264.496521,232.372452 
	C258.656158,230.302902 251.099838,233.041611 248.865112,237.319183 
	C246.348770,242.135803 247.947311,252.159058 252.030029,255.490311 
	C256.541229,259.171173 261.743683,258.628601 266.779419,256.896545 
	C268.376434,256.347260 269.985229,254.800354 270.729156,253.287369 
	C271.047119,252.640747 269.165405,250.912552 268.340912,249.756760 
	C260.859375,253.719223 258.510895,253.920624 255.416855,250.837433 
	C252.141876,247.573914 252.335388,243.889191 254.933640,239.464828 
M315.998993,247.670181 
	C316.008270,239.160431 316.135651,239.098297 323.784698,235.949142 
	C324.886200,235.495636 325.499817,233.857132 326.573059,232.463364 
	C320.965149,232.463364 316.683716,232.463364 312.002258,232.463364 
	C312.002258,239.968903 311.894562,247.738403 312.131897,255.497330 
	C312.163300,256.523376 313.952942,257.495636 314.928284,258.492828 
	C315.285187,258.160919 315.642090,257.829041 315.998993,257.497131 
	C315.998993,254.535126 315.998993,251.573120 315.998993,247.670181 
z"/>
<path fill="#1EE2CF" opacity="1.000000" stroke="none" 
	d="
M372.065552,72.066826 
	C375.521088,69.066620 379.047577,66.143753 382.419037,63.051891 
	C393.014038,53.335491 409.923676,51.511318 421.076355,60.902618 
	C432.873413,70.836533 438.022614,83.101456 433.398560,100.101128 
	C430.195923,111.874992 423.128296,121.199821 413.708038,128.835571 
	C409.318665,132.393433 405.347443,136.579727 400.605042,139.553696 
	C396.853027,141.906601 392.356354,142.410980 388.316254,138.900757 
	C383.847748,135.018295 383.485535,129.515671 388.026642,125.532295 
	C391.831543,122.194710 395.975800,119.247452 399.869049,116.006348 
	C407.623108,109.551094 413.029449,101.494980 416.092072,91.859367 
	C417.632751,87.012054 415.186707,83.427101 412.174622,80.273666 
	C411.560150,79.630371 408.390259,80.062645 407.868835,80.907112 
	C402.666168,89.333031 397.676575,97.895676 392.818085,106.527382 
	C388.226624,114.684616 383.800568,122.937065 379.418030,131.209229 
	C374.295227,140.878708 370.691895,142.779785 360.260223,139.886276 
	C357.117950,139.014664 354.028992,136.986679 351.578583,134.759140 
	C343.040039,126.997208 334.484100,118.973305 329.337250,108.537666 
	C323.328644,96.354767 322.537964,83.258331 329.563080,71.311935 
	C335.215118,61.700554 343.744141,54.913216 355.948456,54.998405 
	C358.113556,55.013519 360.295074,55.173306 362.441254,54.971294 
	C372.780029,53.998108 374.109772,61.577869 372.546448,68.914543 
	C372.411377,69.548439 372.073639,70.139137 371.288452,71.293030 
	C369.174683,72.223862 367.549988,73.086479 366.039093,72.919540 
	C358.258942,72.059853 351.705780,73.789589 346.419739,80.085617 
	C343.890717,83.097809 342.614319,89.401352 344.998444,92.474777 
	C347.411011,95.584785 352.129883,96.453911 354.952240,93.286522 
	C360.990173,86.510429 366.399017,79.173836 372.065552,72.066826 
z"/>
<path fill="#333333" opacity="1.000000" stroke="none" 
	d="
M265.019226,216.087250 
	C264.325348,216.728775 263.648102,217.904144 262.934967,217.926346 
	C257.804016,218.086044 252.665756,218.011841 247.267639,218.011841 
	C247.267639,194.628937 247.267639,171.561935 247.267639,147.999146 
	C252.383804,147.999146 257.521851,147.699387 262.586365,148.177902 
	C264.148987,148.325546 265.511108,150.594879 267.037750,151.957642 
	C274.810669,144.833801 296.323029,145.264862 303.953583,154.472961 
	C305.834412,156.742645 307.426361,156.215485 309.274872,154.282150 
	C313.687683,149.666855 319.232697,148.061981 325.558167,147.920700 
	C333.540009,147.742447 341.092926,148.293869 347.893341,153.264206 
	C352.863098,156.896545 355.655792,161.927032 355.821960,167.505615 
	C356.317078,184.130402 355.999634,200.779419 355.999634,217.716736 
	C350.019501,217.716736 344.287018,217.716736 337.999847,217.716736 
	C337.999847,204.952728 338.189819,192.180145 337.936096,179.416367 
	C337.752930,170.201172 335.290649,167.346390 328.129211,164.642044 
	C321.385986,162.095627 312.341187,167.668320 312.057373,174.433563 
	C311.529907,187.005341 311.328003,199.590851 311.005890,212.171036 
	C310.959961,213.963928 310.999512,215.759003 310.999512,217.781433 
	C304.898102,217.781433 299.161865,217.781433 293.000519,217.781433 
	C293.000519,206.364578 293.265594,195.073486 292.867920,183.805786 
	C292.712311,179.397034 291.736816,174.741592 289.940979,170.733353 
	C287.477905,165.235855 281.638458,162.829910 276.590790,164.181702 
	C272.000336,165.411026 266.438965,170.252411 266.103699,177.098816 
	C265.284241,190.376938 265.151733,203.232101 265.019226,216.087250 
z"/>
<path fill="#333333" opacity="1.000000" stroke="none" 
	d="
M123.489731,150.191467 
	C132.909515,146.917648 141.652512,148.185364 148.694809,151.392548 
	C155.801895,147.172363 162.394287,149.924789 168.999237,148.832245 
	C168.999237,156.484146 168.999222,163.592728 168.999237,170.701324 
	C168.999252,186.348373 168.837402,201.997681 169.056107,217.641678 
	C169.202255,228.095490 163.545593,236.205399 154.016632,240.188110 
	C144.800980,244.039886 135.573257,244.272430 126.657227,241.719269 
	C119.505676,239.671356 111.509674,237.749969 107.261742,229.969894 
	C105.652740,227.023010 105.257317,224.912888 107.845222,222.626236 
	C110.795685,220.019257 114.187767,217.735443 116.520424,214.654404 
	C118.964058,211.426773 119.626053,213.302185 120.741821,215.285782 
	C123.398369,220.008530 126.507248,223.534729 132.325119,225.275635 
	C141.673111,228.072845 152.819122,222.350464 150.752396,209.179077 
	C138.848694,215.396652 127.037643,213.735123 115.856308,207.808151 
	C109.325317,204.346191 106.703957,197.264709 105.134613,190.461884 
	C102.640366,179.649765 104.149513,169.399918 110.451614,159.749954 
	C113.696136,154.781845 118.576317,153.035370 123.489731,150.191467 
M149.004883,172.679443 
	C145.439438,166.064590 135.683105,163.447815 128.507248,167.181686 
	C123.211861,169.937088 120.358063,180.000534 122.770943,186.272430 
	C125.889305,194.378128 133.779160,198.721039 144.423096,193.800400 
	C150.540070,190.972580 152.822754,180.454147 149.004883,172.679443 
z"/>
<path fill="#333333" opacity="1.000000" stroke="none" 
	d="
M73.974365,216.056335 
	C58.341614,220.977127 46.023960,216.759277 35.866680,204.621735 
	C25.681740,192.451157 25.744753,176.330154 33.042107,164.225861 
	C42.793800,148.050491 59.675121,145.030594 75.257286,149.981415 
	C76.954918,150.520813 78.668030,151.011459 80.774612,151.645248 
	C80.932541,150.483551 81.086296,149.352570 81.253365,148.123688 
	C87.417572,148.123688 93.391014,148.123688 99.685036,148.123688 
	C99.685036,171.201706 99.685036,194.270996 99.685036,217.681061 
	C93.793724,217.681061 87.716560,217.681061 81.151787,217.681061 
	C81.079887,216.496231 80.994438,215.087982 80.909004,213.679993 
	C78.726959,214.465866 76.560135,215.246246 73.974365,216.056335 
M80.042976,184.735291 
	C82.258713,179.261520 79.363007,174.413986 76.244606,171.185196 
	C70.776382,165.523376 62.250164,162.903641 54.104561,168.947815 
	C48.489853,173.113983 45.603863,183.307419 49.107559,189.940277 
	C53.278263,197.835831 58.033794,200.510010 67.254608,198.747238 
	C74.327583,197.395081 79.555923,193.353546 80.042976,184.735291 
z"/>
<path fill="#333333" opacity="1.000000" stroke="none" 
	d="
M227.309708,181.306442 
	C223.733078,190.310028 220.347626,198.973999 217.079056,207.681839 
	C215.896332,210.832809 215.156052,214.152435 213.930267,217.284088 
	C211.051178,224.639526 208.080673,231.962524 204.939407,239.208572 
	C204.433350,240.375900 202.895126,241.815826 201.770370,241.872803 
	C196.311249,242.149353 190.830414,241.997650 184.378036,241.997650 
	C186.362274,236.034210 188.095261,230.618103 189.974197,225.253098 
	C191.196335,221.763535 192.718063,218.378464 193.923843,214.883881 
	C194.353058,213.639984 194.688797,212.071136 194.314423,210.889008 
	C191.310577,201.403915 188.273056,191.924088 184.957916,182.544418 
	C181.372528,172.400177 177.463394,162.370590 173.733398,152.276978 
	C173.295227,151.091263 173.096985,149.816895 172.702682,148.245544 
	C179.238235,148.245544 185.338364,148.245544 191.287827,148.245544 
	C195.940231,160.326035 200.589233,172.397659 205.577667,185.350662 
	C209.913803,173.672699 213.965225,162.712585 218.060928,151.769012 
	C218.970337,149.339066 220.190216,147.604416 223.438156,147.905594 
	C227.564453,148.288239 231.754868,147.923843 235.914062,148.026398 
	C238.820160,148.098068 239.554214,149.390091 238.358109,152.230576 
	C235.441162,159.157608 232.740280,166.177322 230.048615,173.196625 
	C229.073914,175.738464 228.372955,178.385254 227.309708,181.306442 
z"/>
<path fill="#1DE1CE" opacity="1.000000" stroke="none" 
	d="
M374.364746,18.991062 
	C384.641235,14.763084 394.927795,23.841503 395.373260,33.212708 
	C396.093964,48.374939 380.650970,51.378342 371.014862,46.906113 
	C369.369934,46.142685 367.851074,44.402805 367.005646,42.741653 
	C363.020325,34.910870 363.380096,23.230450 374.364746,18.991062 
z"/>
<path fill="#323232" opacity="1.000000" stroke="none" 
	d="
M277.908173,251.704071 
	C276.933136,245.575150 274.721191,239.491653 280.551697,235.095734 
	C282.606873,233.546234 285.359131,232.399384 287.903748,232.135330 
	C292.448151,231.663773 297.076630,232.002609 301.824768,232.002609 
	C301.824768,240.853256 301.824768,249.293381 301.824768,257.639038 
	C297.215424,257.762604 292.719940,257.696625 288.258179,258.052765 
	C283.347687,258.444733 281.030304,254.771317 277.908173,251.704071 
M296.977692,242.054443 
	C295.894745,237.980469 292.729706,235.846786 289.050964,236.228012 
	C285.211212,236.625916 282.568695,239.649963 282.051880,243.720795 
	C281.550751,247.667938 282.995575,250.769058 286.881470,252.402313 
	C292.522644,254.773315 296.960571,250.604004 296.977692,242.054443 
z"/>
<path fill="#313131" opacity="1.000000" stroke="none" 
	d="
M332.292114,253.697586 
	C327.481964,245.829880 328.428650,238.766602 333.750916,234.529617 
	C338.606628,230.664093 343.715790,231.349487 348.464783,233.348938 
	C352.921173,235.225204 353.437469,239.870010 353.004730,244.374924 
	C352.941986,245.028214 352.996002,245.692719 352.996002,246.874725 
	C347.032288,246.874725 341.167572,246.874725 335.084198,246.874725 
	C337.801117,252.966873 341.887573,254.815308 346.740417,251.466797 
	C349.741394,249.396088 351.034302,250.149353 352.746124,252.380951 
	C347.560760,259.765869 338.962799,260.439270 332.292114,253.697586 
M346.042450,238.533447 
	C340.713226,234.675797 337.577301,235.699997 335.644623,241.949677 
	C339.911621,241.949677 344.171600,241.949677 349.199921,241.949677 
	C348.140015,240.685623 347.415131,239.821121 346.042450,238.533447 
z"/>
<path fill="#313131" opacity="1.000000" stroke="none" 
	d="
M254.673767,239.770645 
	C252.335388,243.889191 252.141876,247.573914 255.416855,250.837433 
	C258.510895,253.920624 260.859375,253.719223 268.340912,249.756760 
	C269.165405,250.912552 271.047119,252.640747 270.729156,253.287369 
	C269.985229,254.800354 268.376434,256.347260 266.779419,256.896545 
	C261.743683,258.628601 256.541229,259.171173 252.030029,255.490311 
	C247.947311,252.159058 246.348770,242.135803 248.865112,237.319183 
	C251.099838,233.041611 258.656158,230.302902 264.496521,232.372452 
	C266.903809,233.225479 272.235748,233.003937 270.599091,237.352341 
	C269.072632,241.407959 265.415527,237.841507 263.141510,236.881088 
	C259.331635,235.272064 257.147369,236.974304 254.673767,239.770645 
z"/>
<path fill="#323232" opacity="1.000000" stroke="none" 
	d="
M315.998993,248.140656 
	C315.998993,251.573120 315.998993,254.535126 315.998993,257.497131 
	C315.642090,257.829041 315.285187,258.160919 314.928284,258.492828 
	C313.952942,257.495636 312.163300,256.523376 312.131897,255.497330 
	C311.894562,247.738403 312.002258,239.968903 312.002258,232.463364 
	C316.683716,232.463364 320.965149,232.463364 326.573059,232.463364 
	C325.499817,233.857132 324.886200,235.495636 323.784698,235.949142 
	C316.135651,239.098297 316.008270,239.160431 315.998993,248.140656 
z"/>
<path fill="#010101" opacity="1.000000" stroke="none" 
	d="
M265.414001,215.885300 
	C265.151733,203.232101 265.284241,190.376938 265.754486,177.267090 
	C265.997742,189.902725 265.903259,202.793030 265.414001,215.885300 
z"/>
<path fill="#FFFFFF" opacity="1.000000" stroke="none" 
	d="
M371.902466,71.884529 
	C366.399017,79.173836 360.990173,86.510429 354.952240,93.286522 
	C352.129883,96.453911 347.411011,95.584785 344.998444,92.474777 
	C342.614319,89.401352 343.890717,83.097809 346.419739,80.085617 
	C351.705780,73.789589 358.258942,72.059853 366.039093,72.919540 
	C367.549988,73.086479 369.174683,72.223862 371.056671,71.610931 
	C371.366455,71.385704 371.739410,71.702232 371.902466,71.884529 
z"/>
<path fill="#FFFFFF" opacity="1.000000" stroke="none" 
	d="
M149.038803,173.079254 
	C152.822754,180.454147 150.540070,190.972580 144.423096,193.800400 
	C133.779160,198.721039 125.889305,194.378128 122.770943,186.272430 
	C120.358063,180.000534 123.211861,169.937088 128.507248,167.181686 
	C135.683105,163.447815 145.439438,166.064590 149.038803,173.079254 
z"/>
<path fill="#FFFFFF" opacity="1.000000" stroke="none" 
	d="
M80.020042,185.150482 
	C79.555923,193.353546 74.327583,197.395081 67.254608,198.747238 
	C58.033794,200.510010 53.278263,197.835831 49.107559,189.940277 
	C45.603863,183.307419 48.489853,173.113983 54.104561,168.947815 
	C62.250164,162.903641 70.776382,165.523376 76.244606,171.185196 
	C79.363007,174.413986 82.258713,179.261520 80.020042,185.150482 
z"/>
<path fill="#FFFFFF" opacity="1.000000" stroke="none" 
	d="
M296.988281,242.471771 
	C296.960571,250.604004 292.522644,254.773315 286.881470,252.402313 
	C282.995575,250.769058 281.550751,247.667938 282.051880,243.720795 
	C282.568695,239.649963 285.211212,236.625916 289.050964,236.228012 
	C292.729706,235.846786 295.894745,237.980469 296.988281,242.471771 
z"/>
<path fill="#FFFFFF" opacity="1.000000" stroke="none" 
	d="
M346.366333,238.745026 
	C347.415131,239.821121 348.140015,240.685623 349.199921,241.949677 
	C344.171600,241.949677 339.911621,241.949677 335.644623,241.949677 
	C337.577301,235.699997 340.713226,234.675797 346.366333,238.745026 
z"/>
</svg>